<svg
    xmlns="http://www.w3.org/2000/svg"
    xmlns:xlink="http://www.w3.org/1999/xlink"
    width="20"
    height="20"
    zoomAndPan="magnify"
    viewBox="0 0 75 74.999997"
    preserveAspectRatio="xMidYMid meet"
    version="1.0"
    fill="none"
    stroke-width="5"
    stroke-opacity="1"
    stroke-miterlimit="4"
    stroke-linecap="butt"
    stroke-linejoin="miter"
>

<path
    stroke-width="10"
    transform="matrix(0.749164, 0, 0, 0.75, 6.000005, 3.749999)"
    d="M -0.00000679424 5.000002 L 84.098963 5.000002 "
/>

<path
    transform="matrix(0.00185887, -0.751447, 0.749998, 0.00185528, 5.545199, 67.654981)"
    d="M -0.000709574 2.502244 L 80.84849 2.499777 "/>

<path 
    transform="matrix(-0.0042246, -0.751438, 0.749988, -0.00421645, 65.696876, 67.669769)"
    d="M -0.00122332 2.497948 L 80.854196 2.500265 "
/>
<path
    transform="matrix(0.00140823, -0.751448, 0.749999, 0.00140551, 45.393631, 67.656145)"
    d="M -0.000660201 2.501206 L 80.848441 2.500442 "
/>
<path
    transform="matrix(0.000000000000000046, -0.752031, 0.75, 0.000000000000000046, 25.543095, 67.636275)"
    d="M -0.000589967 2.499832 L 80.791052 2.499832 "
/>
<path
    transform="matrix(0.751026, -0.00108221, 0.00108073, 0.749999, 7.497083, 23.560352)"
    d="M 0.000290238 2.497659 L 79.901405 2.498369 "
/>
<path
    transform="matrix(0.751026, -0.00108221, 0.00108073, 0.749999, 7.497083, 58.456067)"
    d="M 0.000285015 2.501289 L 79.9014 2.501998 "
/>
<path
    transform="matrix(0.751026, -0.00108221, 0.00108073, 0.749999, 7.497083, 41.008208)"
    d="M 0.000287623 2.499476 L 79.901403 2.500186 "
/>
</svg>