<?xml version="1.0" standalone="no"?>
<!DOCTYPE svg PUBLIC "-//W3C//DTD SVG 20010904//EN"
 "http://www.w3.org/TR/2001/REC-SVG-20010904/DTD/svg10.dtd">
<svg version="1.0" xmlns="http://www.w3.org/2000/svg"
 width="28" height="28" viewBox="0 0 512.000000 512.000000"
 preserveAspectRatio="xMidYMid meet">

<g transform="translate(0.000000,512.000000) scale(0.100000,-0.100000)"
fill="#000000" stroke="none">
<path d="M2564 3144 c6 -1881 6 -1966 -11 -1959 -10 4 -56 22 -103 39 -82 30
-90 31 -250 31 -194 0 -260 -15 -427 -95 -413 -196 -642 -520 -568 -803 22
-85 51 -134 118 -205 98 -101 205 -142 377 -142 257 0 542 120 752 318 114
108 198 243 252 404 l24 73 8 1458 7 1459 36 -7 c175 -33 511 -217 656 -359
151 -148 279 -417 337 -707 34 -171 32 -394 -4 -539 -36 -144 -83 -280 -194
-566 -52 -134 -94 -249 -94 -255 0 -31 63 52 113 149 127 245 255 617 313 909
49 252 18 541 -86 791 -97 233 -244 438 -612 854 -180 203 -295 358 -353 474
-78 158 -130 416 -117 582 l4 62 -92 0 -93 0 7 -1966z"/>
</g>
</svg>
