<svg version="1.0" xmlns="http://www.w3.org/2000/svg" width="506.667" height="912" viewBox="0 0 380 684"><path d="M138 23.2c-2.5 1.3-5.1 3.5-5.8 5-1.2 2.6-.9 3.1 6.8 12.9 9 11.3 19.3 26.3 27.1 39.4 7.5 12.7 19.4 37.6 21.8 45.5 8.8 28.9.4 63.8-24.1 100.3-12.3 18.3-34.5 44-50.2 58l-7.5 6.8 12.2 15.1c6.7 8.3 20 24.4 29.6 35.7 31.4 37.2 50.6 60.4 58.7 71.1 9.8 12.8 25.4 34.6 25.4 35.5 0 .3-.9.1-1.9-.4-5.4-3-20.6-8.5-27.9-10.2-16.2-3.7-37.4-1.9-49.6 4.3-30.7 15.6-49.8 47.6-51.3 86-.7 15.6.9 23.1 7.7 37.3 15.1 31.4 62.3 78 96.1 95 10.5 5.2 15.6 5.8 18.8 2.3l2.1-2.1-8.3-8.6c-37.2-38.7-51.4-76.7-40.3-108 5-13.9 18-25.8 35.8-32.4 25.5-9.6 61.9-7.1 95.8 6.7 4.7 1.9 8.6 3.3 8.8 3.1.6-.6-14.1-21.9-22.8-33-4.8-6.1-15.7-19.7-24.3-30.3-44.2-54.4-57.2-78-55.2-100.2 2.4-28.3 25.1-68.9 69.2-123.8 7.2-9 8.1-10.6 7-12.1C232.5 139.8 145.2 21 144 21c-.9 0-3.6 1-6 2.2z"/></svg>